<svg width="70" height="30" viewBox="0 0 70 30" fill="none" xmlns="http://www.w3.org/2000/svg">
<path fill-rule="evenodd" clip-rule="evenodd" d="M29.607 19.3495C28.0311 19.9119 26.3335 20.2182 24.5644 20.2182C22.4234 20.2182 20.3871 19.7696 18.5444 18.9613C18.5398 19.0727 18.5374 19.1847 18.5374 19.2973C18.5374 22.7419 20.7532 25.669 23.8372 26.731C26.4713 24.9636 28.5143 22.3834 29.607 19.3495ZM11.8523 13.1844C13.0675 15.1196 14.7124 16.7575 16.6531 17.9647C14.9003 19.4062 13.7825 21.5917 13.7825 24.0383C13.7825 26.0442 14.5339 27.8746 15.7705 29.2634C15.6773 29.2651 15.5839 29.2659 15.4903 29.2659C7.20612 29.2659 0.49037 22.5502 0.49037 14.2659C0.49037 14.1589 0.49149 14.0521 0.49372 13.9456C1.89316 15.2315 3.76014 16.0165 5.81048 16.0165C8.23912 16.0165 10.4105 14.9151 11.8523 13.1844ZM10.8357 11.2709C10.0183 9.41961 9.56442 7.37193 9.56442 5.2182C9.56442 3.43374 9.87602 1.72205 10.4478 0.134587C7.42952 1.21171 4.8575 3.22839 3.08391 5.83246C4.10356 8.99084 7.06762 11.2754 10.5653 11.2754C10.6558 11.2754 10.746 11.2739 10.8357 11.2709Z" fill="#8D72E1"/>
<path d="M22.0204 10.679V13.085H25.0564V14.327H22.0204V16.781H25.8724V18.071H20.4004V9.39501H25.8724V10.679H22.0204ZM30.2856 15.443C29.8576 15.463 29.4976 15.501 29.2056 15.557C28.9136 15.609 28.6796 15.677 28.5036 15.761C28.3276 15.845 28.2016 15.943 28.1256 16.055C28.0496 16.167 28.0116 16.289 28.0116 16.421C28.0116 16.681 28.0876 16.867 28.2396 16.979C28.3956 17.091 28.5976 17.147 28.8456 17.147C29.1496 17.147 29.4116 17.093 29.6316 16.985C29.8556 16.873 30.0736 16.705 30.2856 16.481V15.443ZM26.8896 12.773C27.5976 12.125 28.4496 11.801 29.4456 11.801C29.8056 11.801 30.1276 11.861 30.4116 11.981C30.6956 12.097 30.9356 12.261 31.1316 12.473C31.3276 12.681 31.4756 12.931 31.5756 13.223C31.6796 13.515 31.7316 13.835 31.7316 14.183V18.071H31.0596C30.9196 18.071 30.8116 18.051 30.7356 18.011C30.6596 17.967 30.5996 17.881 30.5556 17.753L30.4236 17.309C30.2676 17.449 30.1156 17.573 29.9676 17.681C29.8196 17.785 29.6656 17.873 29.5056 17.945C29.3456 18.017 29.1736 18.071 28.9896 18.107C28.8096 18.147 28.6096 18.167 28.3896 18.167C28.1296 18.167 27.8896 18.133 27.6696 18.065C27.4496 17.993 27.2596 17.887 27.0996 17.747C26.9396 17.607 26.8156 17.433 26.7276 17.225C26.6396 17.017 26.5956 16.775 26.5956 16.499C26.5956 16.343 26.6216 16.189 26.6736 16.037C26.7256 15.881 26.8096 15.733 26.9256 15.593C27.0456 15.453 27.1996 15.321 27.3876 15.197C27.5756 15.073 27.8056 14.965 28.0776 14.873C28.3536 14.781 28.6736 14.707 29.0376 14.651C29.4016 14.591 29.8176 14.555 30.2856 14.543V14.183C30.2856 13.771 30.1976 13.467 30.0216 13.271C29.8456 13.071 29.5916 12.971 29.2596 12.971C29.0196 12.971 28.8196 12.999 28.6596 13.055C28.5036 13.111 28.3656 13.175 28.2456 13.247C28.1256 13.315 28.0156 13.377 27.9156 13.433C27.8196 13.489 27.7116 13.517 27.5916 13.517C27.4876 13.517 27.3996 13.491 27.3276 13.439C27.2556 13.383 27.1976 13.319 27.1536 13.247L26.8896 12.773ZM36.8833 13.115C36.8433 13.179 36.8013 13.225 36.7573 13.253C36.7133 13.277 36.6573 13.289 36.5893 13.289C36.5173 13.289 36.4393 13.269 36.3553 13.229C36.2753 13.189 36.1813 13.145 36.0733 13.097C35.9653 13.045 35.8413 12.999 35.7013 12.959C35.5653 12.919 35.4033 12.899 35.2153 12.899C34.9233 12.899 34.6933 12.961 34.5253 13.085C34.3613 13.209 34.2793 13.371 34.2793 13.571C34.2793 13.703 34.3213 13.815 34.4053 13.907C34.4933 13.995 34.6073 14.073 34.7473 14.141C34.8913 14.209 35.0533 14.271 35.2333 14.327C35.4133 14.379 35.5953 14.437 35.7793 14.501C35.9673 14.565 36.1513 14.639 36.3313 14.723C36.5113 14.803 36.6713 14.907 36.8113 15.035C36.9553 15.159 37.0693 15.309 37.1533 15.485C37.2413 15.661 37.2853 15.873 37.2853 16.121C37.2853 16.417 37.2313 16.691 37.1233 16.943C37.0193 17.191 36.8633 17.407 36.6553 17.591C36.4473 17.771 36.1893 17.913 35.8813 18.017C35.5773 18.117 35.2253 18.167 34.8253 18.167C34.6133 18.167 34.4053 18.147 34.2013 18.107C34.0013 18.071 33.8073 18.019 33.6193 17.951C33.4353 17.883 33.2633 17.803 33.1033 17.711C32.9473 17.619 32.8093 17.519 32.6893 17.411L33.0313 16.847C33.0753 16.779 33.1273 16.727 33.1873 16.691C33.2473 16.655 33.3233 16.637 33.4153 16.637C33.5073 16.637 33.5933 16.663 33.6733 16.715C33.7573 16.767 33.8533 16.823 33.9613 16.883C34.0693 16.943 34.1953 16.999 34.3393 17.051C34.4873 17.103 34.6733 17.129 34.8973 17.129C35.0733 17.129 35.2233 17.109 35.3473 17.069C35.4753 17.025 35.5793 16.969 35.6593 16.901C35.7433 16.833 35.8033 16.755 35.8393 16.667C35.8793 16.575 35.8993 16.481 35.8993 16.385C35.8993 16.241 35.8553 16.123 35.7673 16.031C35.6833 15.939 35.5693 15.859 35.4253 15.791C35.2853 15.723 35.1233 15.663 34.9393 15.611C34.7593 15.555 34.5733 15.495 34.3813 15.431C34.1933 15.367 34.0073 15.293 33.8233 15.209C33.6433 15.121 33.4813 15.011 33.3373 14.879C33.1973 14.747 33.0833 14.585 32.9953 14.393C32.9113 14.201 32.8693 13.969 32.8693 13.697C32.8693 13.445 32.9193 13.205 33.0193 12.977C33.1193 12.749 33.2653 12.551 33.4573 12.383C33.6533 12.211 33.8953 12.075 34.1833 11.975C34.4753 11.871 34.8113 11.819 35.1913 11.819C35.6153 11.819 36.0013 11.889 36.3493 12.029C36.6973 12.169 36.9873 12.353 37.2193 12.581L36.8833 13.115ZM43.8756 11.915L40.5216 19.763C40.4776 19.867 40.4196 19.945 40.3476 19.997C40.2796 20.053 40.1736 20.081 40.0296 20.081H38.9256L40.0776 17.609L37.5876 11.915H38.8896C39.0056 11.915 39.0956 11.943 39.1596 11.999C39.2276 12.055 39.2776 12.119 39.3096 12.191L40.6176 15.383C40.6616 15.491 40.6976 15.599 40.7256 15.707C40.7576 15.815 40.7876 15.925 40.8156 16.037C40.8516 15.925 40.8876 15.815 40.9236 15.707C40.9596 15.595 40.9996 15.485 41.0436 15.377L42.2796 12.191C42.3116 12.111 42.3636 12.045 42.4356 11.993C42.5116 11.941 42.5956 11.915 42.6876 11.915H43.8756ZM47.9745 16.811C48.2745 16.811 48.5265 16.775 48.7305 16.703C48.9345 16.631 49.0965 16.535 49.2165 16.415C49.3405 16.295 49.4285 16.155 49.4805 15.995C49.5365 15.835 49.5645 15.665 49.5645 15.485C49.5645 15.297 49.5345 15.129 49.4745 14.981C49.4145 14.829 49.3205 14.701 49.1925 14.597C49.0645 14.489 48.8985 14.407 48.6945 14.351C48.4945 14.295 48.2525 14.267 47.9685 14.267H46.3425V16.811H47.9745ZM46.3425 10.643V13.151H47.6265C48.1785 13.151 48.5945 13.051 48.8745 12.851C49.1585 12.651 49.3005 12.333 49.3005 11.897C49.3005 11.445 49.1725 11.123 48.9165 10.931C48.6605 10.739 48.2605 10.643 47.7165 10.643H46.3425ZM47.7165 9.39501C48.2845 9.39501 48.7705 9.44901 49.1745 9.55701C49.5785 9.66501 49.9085 9.81901 50.1645 10.019C50.4245 10.219 50.6145 10.461 50.7345 10.745C50.8545 11.029 50.9145 11.349 50.9145 11.705C50.9145 11.909 50.8845 12.105 50.8245 12.293C50.7645 12.477 50.6705 12.651 50.5425 12.815C50.4185 12.975 50.2585 13.121 50.0625 13.253C49.8705 13.385 49.6405 13.497 49.3725 13.589C50.5645 13.857 51.1605 14.501 51.1605 15.521C51.1605 15.889 51.0905 16.229 50.9505 16.541C50.8105 16.853 50.6065 17.123 50.3385 17.351C50.0705 17.575 49.7405 17.751 49.3485 17.879C48.9565 18.007 48.5085 18.071 48.0045 18.071H44.7285V9.39501H47.7165ZM57.5915 11.915V18.071H56.6855C56.4895 18.071 56.3655 17.981 56.3135 17.801L56.2115 17.309C55.9595 17.565 55.6815 17.773 55.3775 17.933C55.0735 18.089 54.7155 18.167 54.3035 18.167C53.9675 18.167 53.6695 18.111 53.4095 17.999C53.1535 17.883 52.9375 17.721 52.7615 17.513C52.5855 17.305 52.4515 17.059 52.3595 16.775C52.2715 16.487 52.2275 16.171 52.2275 15.827V11.915H53.7095V15.827C53.7095 16.203 53.7955 16.495 53.9675 16.703C54.1435 16.907 54.4055 17.009 54.7535 17.009C55.0095 17.009 55.2495 16.953 55.4735 16.841C55.6975 16.725 55.9095 16.567 56.1095 16.367V11.915H57.5915ZM64.6529 11.915L61.2989 19.763C61.2549 19.867 61.1969 19.945 61.1249 19.997C61.0569 20.053 60.9509 20.081 60.8069 20.081H59.7029L60.8549 17.609L58.3649 11.915H59.6669C59.7829 11.915 59.8729 11.943 59.9369 11.999C60.0049 12.055 60.0549 12.119 60.0869 12.191L61.3949 15.383C61.4389 15.491 61.4749 15.599 61.5029 15.707C61.5349 15.815 61.5649 15.925 61.5929 16.037C61.6289 15.925 61.6649 15.815 61.7009 15.707C61.7369 15.595 61.7769 15.485 61.8209 15.377L63.0569 12.191C63.0889 12.111 63.1409 12.045 63.2129 11.993C63.2889 11.941 63.3729 11.915 63.4649 11.915H64.6529Z" fill="#3D3161"/>
<path d="M66.1662 22.3459C65.7449 22.3459 65.3582 22.2713 65.0062 22.1219C64.6542 21.9726 64.3475 21.7646 64.0862 21.4979C63.8302 21.2313 63.6302 20.9219 63.4862 20.5699C63.3475 20.2126 63.2782 19.8313 63.2782 19.4259C63.2782 19.0153 63.3475 18.6339 63.4862 18.2819C63.6249 17.9299 63.8222 17.6233 64.0782 17.3619C64.3342 17.1006 64.6382 16.8953 64.9902 16.7459C65.3422 16.5966 65.7289 16.5219 66.1502 16.5219C66.5769 16.5219 66.9662 16.5966 67.3182 16.7459C67.6755 16.8953 67.9822 17.1006 68.2382 17.3619C68.4942 17.6233 68.6915 17.9299 68.8302 18.2819C68.9742 18.6339 69.0462 19.0179 69.0462 19.4339C69.0462 19.8393 68.9742 20.2206 68.8302 20.5779C68.6915 20.9299 68.4942 21.2393 68.2382 21.5059C67.9822 21.7726 67.6782 21.9806 67.3262 22.1299C66.9742 22.2739 66.5875 22.3459 66.1662 22.3459ZM66.1502 21.9139C66.6355 21.9139 67.0595 21.8046 67.4222 21.5859C67.7902 21.3673 68.0782 21.0686 68.2862 20.6899C68.4942 20.3113 68.5982 19.8873 68.5982 19.4179C68.5982 18.9593 68.4942 18.5433 68.2862 18.1699C68.0835 17.7966 67.7982 17.5006 67.4302 17.2819C67.0622 17.0633 66.6355 16.9539 66.1502 16.9539C65.6702 16.9539 65.2462 17.0633 64.8782 17.2819C64.5155 17.4953 64.2329 17.7886 64.0302 18.1619C63.8275 18.5353 63.7262 18.9539 63.7262 19.4179C63.7262 19.8873 63.8275 20.3113 64.0302 20.6899C64.2382 21.0686 64.5235 21.3673 64.8862 21.5859C65.2542 21.8046 65.6755 21.9139 66.1502 21.9139ZM66.2622 21.0659C65.9369 21.0659 65.6409 20.9966 65.3742 20.8579C65.1129 20.7139 64.9049 20.5193 64.7502 20.2739C64.5955 20.0286 64.5182 19.7486 64.5182 19.4339C64.5182 19.1193 64.5955 18.8393 64.7502 18.5939C64.9049 18.3486 65.1155 18.1539 65.3822 18.0099C65.6489 17.8659 65.9475 17.7939 66.2782 17.7939C66.5235 17.7939 66.7475 17.8366 66.9502 17.9219C67.1529 18.0019 67.3342 18.1219 67.4942 18.2819L66.8062 18.9779C66.7422 18.9086 66.6675 18.8579 66.5822 18.8259C66.4969 18.7886 66.3955 18.7699 66.2782 18.7699C66.1555 18.7699 66.0435 18.7993 65.9422 18.8579C65.8409 18.9113 65.7609 18.9886 65.7022 19.0899C65.6489 19.1859 65.6222 19.2979 65.6222 19.4259C65.6222 19.5593 65.6515 19.6766 65.7102 19.7779C65.7689 19.8739 65.8489 19.9513 65.9502 20.0099C66.0515 20.0633 66.1609 20.0899 66.2782 20.0899C66.4009 20.0899 66.5049 20.0713 66.5902 20.0339C66.6809 19.9913 66.7582 19.9326 66.8222 19.8579L67.5182 20.5539C67.3422 20.7299 67.1502 20.8606 66.9422 20.9459C66.7342 21.0259 66.5075 21.0659 66.2622 21.0659Z" fill="#3D3161"/>
</svg>
