<svg width="179" height="137" viewBox="0 0 179 137" fill="none" xmlns="http://www.w3.org/2000/svg">
<path d="M1.19546 0.742833L0.937988 0.296879L123.878 0.296875C141.551 0.296874 155.878 14.6238 155.878 32.2969C155.878 49.97 141.551 64.2969 123.878 64.2969H51.307L42.0694 48.2969L123.878 48.2969C132.714 48.2969 139.878 41.1334 139.878 32.2969C139.878 23.4603 132.714 16.2969 123.878 16.2969L23.5941 16.2969C18.629 7.699 10.2762 2.27676 1.19546 0.742833Z" fill="url(#paint0_linear_101_12)"/>
<path d="M37.4506 40.2969L123.878 40.2969C128.296 40.2969 131.878 36.7151 131.878 32.2969C131.878 27.8786 128.296 24.2969 123.878 24.2969L28.2129 24.2969L37.4506 40.2969Z" fill="url(#paint1_linear_101_12)"/>
<path d="M23.5251 135.884L23.2676 136.33H146.207C163.88 136.33 178.207 122.003 178.207 104.33C178.207 86.6564 163.88 72.3295 146.207 72.3295H73.6366L64.3989 88.3295H146.207C155.044 88.3295 162.207 95.493 162.207 104.33C162.207 113.166 155.044 120.33 146.207 120.33L45.9237 120.33C40.9586 128.927 32.6058 134.35 23.5251 135.884Z" fill="url(#paint2_linear_101_12)"/>
<path d="M59.7801 96.3295L146.207 96.3295C150.625 96.3295 154.207 99.9113 154.207 104.33C154.207 108.748 150.625 112.33 146.207 112.33L50.5425 112.33L59.7801 96.3295Z" fill="url(#paint3_linear_101_12)"/>
<defs>
<linearGradient id="paint0_linear_101_12" x1="178.205" y1="104.331" x2="62.6665" y2="104.331" gradientUnits="userSpaceOnUse">
<stop stop-color="#FC5252"/>
<stop offset="1" stop-color="#214EEF"/>
</linearGradient>
<linearGradient id="paint1_linear_101_12" x1="178.205" y1="104.331" x2="62.6665" y2="104.331" gradientUnits="userSpaceOnUse">
<stop stop-color="#FC5252"/>
<stop offset="1" stop-color="#214EEF"/>
</linearGradient>
<linearGradient id="paint2_linear_101_12" x1="178.205" y1="104.331" x2="62.6665" y2="104.331" gradientUnits="userSpaceOnUse">
<stop stop-color="#FC5252"/>
<stop offset="1" stop-color="#214EEF"/>
</linearGradient>
<linearGradient id="paint3_linear_101_12" x1="178.205" y1="104.331" x2="62.6665" y2="104.331" gradientUnits="userSpaceOnUse">
<stop stop-color="#FC5252"/>
<stop offset="1" stop-color="#214EEF"/>
</linearGradient>
</defs>
</svg>
