<svg width="118" height="31" viewBox="0 0 118 31" fill="none" xmlns="http://www.w3.org/2000/svg">
<path d="M1.07989 3.99241L0.696533 2.26731L15.3407 1.42393C15.9796 1.44949 16.5163 1.6795 16.9508 2.11397C17.3853 2.54844 17.6025 3.02124 17.6025 3.53238C17.6025 3.86462 17.4747 4.15853 17.2191 4.4141C16.9636 4.66967 16.5802 4.82301 16.0691 4.87413L9.62871 4.52911C10.2676 13.5507 10.7404 21.7545 11.0471 29.1405C10.8171 29.9072 10.3826 30.2906 9.74372 30.2906C9.28369 30.2906 8.83644 30.0989 8.40197 29.7155C7.9675 29.3577 7.69915 28.9105 7.59693 28.3738C7.64804 26.9937 7.6736 24.898 7.6736 22.0868C7.6736 21.0389 7.66082 19.4672 7.63526 17.3715C7.63526 15.2758 7.63526 13.7041 7.63526 12.6562C7.63526 9.61495 7.68638 6.86757 7.7886 4.4141C4.90066 4.20964 2.66442 4.06908 1.07989 3.99241Z" fill="#E8E8E8"/>
<path d="M23.4295 1.92229L26.343 2.11397C27.0586 5.28304 28.5281 9.76829 30.7516 15.5697C32.975 21.3456 34.4446 25.6648 35.1602 28.5271C35.1602 29.2683 35.0324 29.8178 34.7768 30.1756C34.5212 30.5589 34.2018 30.7506 33.8184 30.7506C33.4862 30.7506 33.1667 30.61 32.86 30.3289C32.5789 30.0733 32.3872 29.7028 32.285 29.2172C32.055 28.0927 31.3138 25.8437 30.0615 22.4701C24.7968 21.8056 21.4872 21.3967 20.1326 21.2434C19.8004 22.1634 19.3915 23.6585 18.9059 25.7286C18.4203 27.7988 18.037 29.23 17.7558 30.0222C17.3725 30.4823 16.938 30.7123 16.4524 30.7123C15.9157 30.7123 15.4557 30.4695 15.0724 29.9839C14.689 29.5239 14.4973 28.9488 14.4973 28.2588C15.3151 25.2686 16.7975 20.8728 18.9442 15.0714C21.091 9.26993 22.5861 4.88691 23.4295 1.92229ZM24.7712 5.79418C24.2601 8.88658 22.8417 13.4229 20.516 19.4033H24.8096C26.7519 19.4033 28.3748 19.4672 29.6782 19.595C27.0458 13.9469 25.4102 9.3466 24.7712 5.79418Z" fill="#E8E8E8"/>
<path d="M36.1952 27.5304L36.7319 25.3836C38.9554 26.5848 41.1405 27.1854 43.2873 27.1854C44.8207 27.1854 46.1241 26.8787 47.1975 26.2653C48.2965 25.6264 48.8459 24.6041 48.8459 23.1985C48.8459 21.9462 48.3859 20.8089 47.4659 19.7866C46.5458 18.7388 45.4341 17.8188 44.1307 17.0265C42.8273 16.2342 41.5239 15.4292 40.2205 14.6113C38.917 13.768 37.8053 12.7457 36.8853 11.5445C35.9652 10.3178 35.5052 8.96325 35.5052 7.48094C35.5052 5.66639 36.1569 4.01797 37.4603 2.53566C38.7637 1.0278 40.3355 0.273865 42.1756 0.273865C43.5812 0.273865 45.1402 0.554992 46.8525 1.11725C48.5904 1.6795 50.0471 2.24175 51.2227 2.80401L50.7627 4.33743C47.8492 3.34071 45.3957 2.84234 43.4023 2.84234C42.1756 2.84234 41.1277 3.23848 40.2588 4.03075C39.3898 4.82301 38.9554 5.84529 38.9554 7.09759C38.9554 8.0432 39.1982 8.89936 39.6838 9.66607C40.1693 10.4328 40.7955 11.0973 41.5622 11.6595C42.3545 12.2218 43.2234 12.7712 44.169 13.3079C45.1402 13.8446 46.0986 14.4197 47.0442 15.033C47.9898 15.6464 48.8459 16.3109 49.6127 17.0265C50.4049 17.7421 51.0438 18.6494 51.5294 19.7483C52.015 20.8217 52.2578 22.0357 52.2578 23.3902C52.2578 25.307 51.6444 26.8787 50.4177 28.1055C49.191 29.3066 47.5936 29.9072 45.6258 29.9072C43.939 29.9072 42.1372 29.6772 40.2205 29.2172C38.3292 28.7316 36.9875 28.1693 36.1952 27.5304Z" fill="#E8E8E8"/>
<path d="M70.2755 29.9839H66.902C66.0586 29.1916 65.1641 28.2843 64.2185 27.2621C63.2729 26.2398 62.4934 25.3708 61.88 24.6553C61.2922 23.9397 60.4616 22.9302 59.3882 21.6267C58.3404 20.2978 57.5992 19.365 57.1647 18.8283L57.6631 29.1788C57.4331 29.9456 56.9859 30.3289 56.3214 30.3289C55.8613 30.3289 55.4141 30.1372 54.9796 29.7539C54.5707 29.3961 54.3151 28.9488 54.2129 28.4121C54.2896 26.3676 54.3535 22.1251 54.4046 15.6847C54.4557 9.24438 54.5707 4.49077 54.7496 1.42393L56.4747 1.80729C56.5514 3.08514 56.6408 5.3086 56.7431 8.47767C56.8453 11.6212 56.922 13.7169 56.9731 14.7647C57.4075 14.228 58.2126 13.244 59.3882 11.8129C60.5894 10.3561 61.4072 9.37216 61.8417 8.86102C62.3017 8.32432 62.9534 7.55761 63.7968 6.56089C64.6657 5.56417 65.458 4.69523 66.1736 3.95407C66.8892 3.21292 67.6559 2.45899 68.4737 1.69228L69.6238 3.57072C68.7037 5.10414 65.1385 9.44883 58.9282 16.6048C59.8227 17.5504 61.6628 19.7483 64.4485 23.1985C67.2598 26.6487 69.2021 28.9105 70.2755 29.9839Z" fill="#E8E8E8"/>
<path d="M71.1572 29.8305L71.0805 27.9521C73.4318 27.5688 74.8885 27.3643 75.4508 27.3387C75.4763 26.4698 75.4891 25.1664 75.4891 23.4285C75.4891 21.1284 75.438 17.8188 75.3358 13.4996C75.2336 9.15493 75.1697 6.27976 75.1441 4.87413L71.2722 4.68245L71.0039 2.45899C72.0517 2.48455 73.6746 2.49732 75.8725 2.49732C78.1215 2.49732 79.7955 2.5101 80.8944 2.53566L81.0094 4.45244C80.575 4.63134 79.9616 4.74634 79.1693 4.79746C78.3771 4.82301 77.8787 4.84857 77.6743 4.87413C77.7509 5.58972 77.7893 7.39149 77.7893 10.2794C77.8148 13.1674 77.8276 16.362 77.8276 19.8633C77.8276 23.3646 77.8532 25.8564 77.9043 27.3387C78.3132 27.4154 79.0927 27.5049 80.2427 27.6071C81.3928 27.7093 82.1084 27.786 82.3895 27.8371L82.3128 29.8305C81.5461 29.805 80.3322 29.7922 78.671 29.7922C77.802 29.7922 76.5114 29.7922 74.7991 29.7922C73.0868 29.8178 71.8728 29.8305 71.1572 29.8305Z" fill="#E8E8E8"/>
<path d="M88.2165 29.9456L84.728 29.7155C84.9836 26.9043 85.1369 22.2018 85.188 15.6081C85.2391 9.01436 85.4052 4.4141 85.6864 1.80729C86.5553 1.88396 88.8554 1.94785 92.5868 1.99896C96.3436 2.05008 98.7971 2.16508 99.9472 2.34398L100.369 4.06908C99.2188 4.27354 96.9187 4.51633 93.4685 4.79746C90.0183 5.07858 88.2037 5.23192 88.0248 5.25748C88.0504 5.84529 88.1015 7.04647 88.1782 8.86102C88.2804 10.6756 88.3443 12.1707 88.3699 13.3463C89.2388 13.4485 90.8233 13.6018 93.1235 13.8063C95.4236 13.9852 96.8803 14.1002 97.4937 14.1513L97.8771 15.9148C92.4845 16.4003 89.3282 16.6559 88.4082 16.6815V17.3332C88.4082 18.3043 88.3699 20.3233 88.2932 23.3902C88.2421 26.4315 88.2165 28.4249 88.2165 29.3705V29.9456Z" fill="#E8E8E8"/>
<path d="M115.588 1.99896L117.697 2.65067C117.467 3.08514 116.891 4.31187 115.971 6.33088C115.077 8.32432 114.093 10.3817 113.02 12.5029C111.946 14.6241 110.898 16.4898 109.876 18.0999C109.978 19.3522 110.042 21.2945 110.068 23.9269C110.093 26.5593 110.144 28.4505 110.221 29.6005C109.991 29.6516 109.403 29.6772 108.458 29.6772C107.563 29.6772 107.026 29.6516 106.848 29.6005C106.924 28.5016 106.975 26.6231 107.001 23.9652C107.052 21.2817 107.129 19.3266 107.231 18.0999C105.953 15.9786 104.522 13.014 102.937 9.20604C101.378 5.39805 100.382 3.0468 99.9472 2.15231L102.516 1.96063L108.573 14.9947C109.033 14.1769 110.081 12.1451 111.716 8.89936C113.377 5.65362 114.668 3.35348 115.588 1.99896Z" fill="#E8E8E8"/>
</svg>
