<svg width="118" height="30" viewBox="0 0 118 30" fill="none" xmlns="http://www.w3.org/2000/svg">
<path d="M3.23067 1.12529L9.02199 10.4704H9.19748L14.9888 1.12529H18.1916L11.1279 12.3569L18.1916 23.5886H14.9888L9.19748 14.419H9.02199L3.23067 23.5886H0.0278931L7.26704 12.3569L0.0278931 1.12529H3.23067Z" fill="#E8E8E8"/>
<path d="M39.4456 8.14507H36.7254C36.5646 7.36266 36.283 6.67531 35.8809 6.08301C35.486 5.49072 35.0034 4.99348 34.433 4.59131C33.87 4.18182 33.2448 3.87471 32.5574 3.66996C31.8701 3.46522 31.1535 3.36285 30.4076 3.36285C29.0476 3.36285 27.8154 3.70652 26.7113 4.39388C25.6144 5.08123 24.7406 6.09398 24.0898 7.43213C23.4464 8.77027 23.1246 10.4119 23.1246 12.3569C23.1246 14.302 23.4464 15.9436 24.0898 17.2818C24.7406 18.6199 25.6144 19.6327 26.7113 20.32C27.8154 21.0074 29.0476 21.351 30.4076 21.351C31.1535 21.351 31.8701 21.2487 32.5574 21.0439C33.2448 20.8392 33.87 20.5357 34.433 20.1335C35.0034 19.7241 35.486 19.2232 35.8809 18.6309C36.283 18.0313 36.5646 17.3439 36.7254 16.5688H39.4456C39.2409 17.7168 38.8679 18.7442 38.3268 19.6509C37.7857 20.5577 37.113 21.3291 36.3086 21.9653C35.5043 22.5941 34.6012 23.0731 33.5994 23.4021C32.605 23.7312 31.541 23.8957 30.4076 23.8957C28.4918 23.8957 26.7881 23.4277 25.2964 22.4917C23.8047 21.5558 22.631 20.2249 21.7755 18.4992C20.92 16.7736 20.4922 14.7261 20.4922 12.3569C20.4922 9.98777 20.92 7.94033 21.7755 6.21463C22.631 4.48894 23.8047 3.1581 25.2964 2.22213C26.7881 1.28616 28.4918 0.818176 30.4076 0.818176C31.541 0.818176 32.605 0.982702 33.5994 1.31175C34.6012 1.64081 35.5043 2.12342 36.3086 2.75958C37.113 3.38844 37.7857 4.15623 38.3268 5.06295C38.8679 5.96236 39.2409 6.98973 39.4456 8.14507Z" fill="#E8E8E8"/>
<path d="M43.4902 23.5886V6.74112H45.991V9.28579H46.1665C46.4736 8.45219 47.0293 7.7758 47.8337 7.25663C48.638 6.73746 49.5448 6.47787 50.5539 6.47787C50.744 6.47787 50.9816 6.48153 51.2668 6.48884C51.552 6.49616 51.7677 6.50712 51.9139 6.52175V9.15417C51.8262 9.13223 51.6251 9.09932 51.3107 9.05545C51.0036 9.00426 50.6782 8.97867 50.3345 8.97867C49.5155 8.97867 48.7843 9.15051 48.1408 9.49419C47.5046 9.83055 47.0001 10.2985 46.6272 10.8981C46.2616 11.4904 46.0787 12.1668 46.0787 12.9273V23.5886H43.4902Z" fill="#E8E8E8"/>
<path d="M57.1623 29.9064C56.7236 29.9064 56.3324 29.8698 55.9887 29.7967C55.645 29.7309 55.4074 29.6651 55.2758 29.5993L55.9339 27.3178C56.5627 27.4787 57.1185 27.5372 57.6011 27.4933C58.0837 27.4495 58.5114 27.2338 58.8844 26.8462C59.2646 26.466 59.6119 25.8481 59.9264 24.9925L60.409 23.6763L54.1789 6.74112H56.9868L61.6374 20.1664H61.8129L66.4635 6.74112H69.2714L62.12 26.0455C61.7983 26.9157 61.3998 27.6359 60.9245 28.2063C60.4492 28.784 59.8971 29.2117 59.2683 29.4896C58.6467 29.7675 57.9447 29.9064 57.1623 29.9064Z" fill="#E8E8E8"/>
<path d="M72.6881 29.9064V6.74112H75.1889V9.41741H75.496C75.6861 9.12492 75.9494 8.75199 76.2857 8.29863C76.6294 7.83796 77.1193 7.42847 77.7555 7.07017C78.399 6.70456 79.2691 6.52175 80.366 6.52175C81.7846 6.52175 83.035 6.87639 84.1172 7.58568C85.1994 8.29497 86.044 9.30041 86.6509 10.602C87.2578 11.9036 87.5613 13.4392 87.5613 15.2087C87.5613 16.9929 87.2578 18.5395 86.6509 19.8484C86.044 21.1499 85.2031 22.159 84.1282 22.8756C83.0532 23.5849 81.8138 23.9396 80.4099 23.9396C79.3276 23.9396 78.4611 23.7604 77.8104 23.4021C77.1596 23.0365 76.6587 22.6234 76.3077 22.1627C75.9567 21.6947 75.6861 21.3072 75.496 21H75.2766V29.9064H72.6881ZM75.2328 15.1649C75.2328 16.4372 75.4192 17.5596 75.7922 18.5322C76.1651 19.4974 76.7099 20.2542 77.4265 20.8026C78.1431 21.3437 79.0205 21.6143 80.0589 21.6143C81.1411 21.6143 82.0442 21.3291 82.7681 20.7587C83.4993 20.1811 84.0477 19.406 84.4133 18.4334C84.7863 17.4536 84.9727 16.3641 84.9727 15.1649C84.9727 13.9803 84.7899 12.9127 84.4243 11.9621C84.066 11.0042 83.5212 10.2474 82.79 9.69162C82.0661 9.12857 81.1557 8.84705 80.0589 8.84705C79.0059 8.84705 78.1211 9.11395 77.4045 9.64774C76.6879 10.1742 76.1468 10.9128 75.7812 11.8634C75.4156 12.8066 75.2328 13.9071 75.2328 15.1649Z" fill="#E8E8E8"/>
<path d="M98.8368 6.74112V8.9348H90.1059V6.74112H98.8368ZM92.6506 2.70474H95.2391V18.7625C95.2391 19.4937 95.3452 20.0421 95.5572 20.4078C95.7766 20.7661 96.0545 21.0074 96.3908 21.1317C96.7345 21.2487 97.0965 21.3072 97.4767 21.3072C97.7619 21.3072 97.9959 21.2925 98.1787 21.2633C98.3615 21.2267 98.5077 21.1975 98.6174 21.1755L99.1439 23.5008C98.9684 23.5667 98.7234 23.6325 98.409 23.6983C98.0946 23.7714 97.6961 23.808 97.2135 23.808C96.4822 23.808 95.7656 23.6507 95.0637 23.3363C94.369 23.0219 93.7913 22.5429 93.3306 21.8995C92.8773 21.256 92.6506 20.4443 92.6506 19.4645V2.70474Z" fill="#E8E8E8"/>
<path d="M109.394 23.9396C107.873 23.9396 106.538 23.5776 105.39 22.8537C104.25 22.1298 103.358 21.117 102.714 19.8155C102.078 18.5139 101.76 16.9929 101.76 15.2526C101.76 13.4977 102.078 11.9657 102.714 10.6568C103.358 9.34794 104.25 8.33154 105.39 7.60762C106.538 6.88371 107.873 6.52175 109.394 6.52175C110.915 6.52175 112.246 6.88371 113.386 7.60762C114.534 8.33154 115.427 9.34794 116.063 10.6568C116.706 11.9657 117.028 13.4977 117.028 15.2526C117.028 16.9929 116.706 18.5139 116.063 19.8155C115.427 21.117 114.534 22.1298 113.386 22.8537C112.246 23.5776 110.915 23.9396 109.394 23.9396ZM109.394 21.6143C110.549 21.6143 111.5 21.3181 112.246 20.7258C112.992 20.1335 113.544 19.3548 113.902 18.3896C114.26 17.4243 114.439 16.3787 114.439 15.2526C114.439 14.1265 114.26 13.0772 113.902 12.1047C113.544 11.1321 112.992 10.3461 112.246 9.74646C111.5 9.14685 110.549 8.84705 109.394 8.84705C108.239 8.84705 107.288 9.14685 106.542 9.74646C105.796 10.3461 105.244 11.1321 104.886 12.1047C104.528 13.0772 104.348 14.1265 104.348 15.2526C104.348 16.3787 104.528 17.4243 104.886 18.3896C105.244 19.3548 105.796 20.1335 106.542 20.7258C107.288 21.3181 108.239 21.6143 109.394 21.6143Z" fill="#E8E8E8"/>
</svg>
